<?xml version="1.0" encoding="utf-8"?>
<!-- Generator: Adobe Illustrator 24.0.1, SVG Export Plug-In . SVG Version: 6.00 Build 0)  -->
<svg version="1.1" xmlns="http://www.w3.org/2000/svg" xmlns:xlink="http://www.w3.org/1999/xlink" x="0px" y="0px"
	 viewBox="0 0 492 492" style="enable-background:new 0 0 492 492;" xml:space="preserve">
<style type="text/css">
	.st0{fill-rule:evenodd;clip-rule:evenodd;fill:#424242;}
	.st1{fill-rule:evenodd;clip-rule:evenodd;fill:#E0E0E0;}
</style>
<g id="Layer_1">
	<g>
		<g>
			<g>
				<path class="st0" d="M246.26,249.13c-1.32,0-2.39-1.07-2.39-2.39V66.62c0-1.32,1.07-2.39,2.39-2.39c1.32,0,2.39,1.07,2.39,2.39
					v180.12C248.65,248.06,247.58,249.13,246.26,249.13z"/>
			</g>
			<g>
				<path class="st0" d="M246.26,249.13c-0.62,0-1.23-0.23-1.7-0.71c-0.93-0.93-0.92-2.45,0.02-3.38l128.64-127.37
					c0.93-0.93,2.45-0.92,3.38,0.02c0.93,0.94,0.92,2.45-0.02,3.38L247.94,248.44C247.48,248.9,246.87,249.13,246.26,249.13z"/>
			</g>
			<g>
				<path class="st0" d="M428.19,249.13H246.26c-1.32,0-2.39-1.07-2.39-2.39c0-1.32,1.07-2.39,2.39-2.39l181.93,0
					c1.32,0,2.39,1.07,2.39,2.39C430.58,248.06,429.51,249.13,428.19,249.13z"/>
			</g>
			<g>
				<path class="st0" d="M374.9,376.48c-0.61,0-1.21-0.23-1.68-0.69L244.58,248.43c-0.94-0.93-0.94-2.44-0.02-3.38
					c0.93-0.94,2.44-0.94,3.38-0.02l128.64,127.35c0.94,0.93,0.94,2.44,0.02,3.38C376.13,376.25,375.51,376.48,374.9,376.48z"/>
			</g>
			<g>
				<path class="st0" d="M246.26,429.25c-1.32,0-2.39-1.07-2.39-2.39V246.74c0-1.32,1.07-2.39,2.39-2.39c1.32,0,2.39,1.07,2.39,2.39
					v180.12C248.65,428.18,247.58,429.25,246.26,429.25z"/>
			</g>
			<g>
				<path class="st0" d="M117.61,376.48c-0.61,0-1.23-0.24-1.7-0.71c-0.93-0.94-0.92-2.45,0.02-3.38l128.65-127.35
					c0.94-0.93,2.45-0.92,3.38,0.02c0.93,0.94,0.92,2.45-0.02,3.38L119.29,375.8C118.83,376.25,118.22,376.48,117.61,376.48z"/>
			</g>
			<g>
				<path class="st0" d="M246.26,249.13H64.33c-1.32,0-2.39-1.07-2.39-2.39c0-1.32,1.07-2.39,2.39-2.39l181.93,0
					c1.32,0,2.39,1.07,2.39,2.39C248.65,248.06,247.58,249.13,246.26,249.13z"/>
			</g>
			<g>
				<path class="st0" d="M246.26,249.13c-0.61,0-1.21-0.23-1.68-0.69L115.94,121.07c-0.94-0.93-0.95-2.44-0.02-3.38
					c0.93-0.94,2.44-0.95,3.38-0.02l128.65,127.37c0.94,0.93,0.94,2.44,0.02,3.37C247.49,248.89,246.87,249.13,246.26,249.13z"/>
			</g>
			<g>
				<path class="st0" d="M325.76,150.95c-13.58,0-26.22-2.33-37.77-6.97c-17.44-7.01-32.14-19.19-43.7-36.21
					c-0.74-1.09-0.46-2.58,0.63-3.32c1.09-0.74,2.57-0.46,3.32,0.63c18.41,27.11,44.96,41.08,77.54,41.08
					c6.8,0,13.86-0.61,21.17-1.83c1.3-0.22,2.53,0.66,2.75,1.96c0.22,1.3-0.66,2.53-1.96,2.75
					C340.17,150.31,332.83,150.95,325.76,150.95z"/>
			</g>
			<g>
				<path class="st0" d="M389.35,249.21c-0.47,0-0.95-0.14-1.37-0.44c-18.26-12.85-31.26-28.13-38.64-45.43
					c-7.33-17.18-9.03-36.09-5.04-56.22c0.25-1.3,1.51-2.14,2.8-1.88c1.29,0.26,2.13,1.51,1.88,2.81
					c-7.67,38.72,6.77,72.2,41.75,96.82c1.08,0.76,1.34,2.25,0.58,3.32C390.84,248.86,390.1,249.21,389.35,249.21z"/>
			</g>
			<g>
				<path class="st0" d="M347.55,349.44c-1.15,0-2.15-0.82-2.36-1.99c-3.73-21.87-2-41.79,5.13-59.19
					c7.08-17.28,19.39-31.84,36.57-43.28c1.1-0.73,2.58-0.43,3.31,0.66c0.73,1.1,0.43,2.58-0.66,3.31
					c-33.08,22.02-46.79,55.8-39.64,97.7c0.22,1.3-0.65,2.53-1.95,2.76C347.81,349.43,347.68,349.44,347.55,349.44z"/>
			</g>
			<g>
				<path class="st0" d="M246.4,391.04c-0.48,0-0.97-0.15-1.39-0.45c-1.07-0.77-1.32-2.26-0.55-3.33
					c12.98-18.08,28.41-30.94,45.88-38.25c17.34-7.26,36.43-8.93,56.75-4.99c1.29,0.25,2.14,1.5,1.89,2.8
					c-0.25,1.29-1.5,2.14-2.8,1.89c-6.83-1.33-13.51-1.98-20-1.98c-30.68,0-57.31,14.73-77.84,43.32
					C247.88,390.69,247.15,391.04,246.4,391.04z"/>
			</g>
			<g>
				<path class="st0" d="M246.26,389.91c-0.76,0-1.52-0.37-1.98-1.05c-22.25-32.77-56.38-46.34-98.71-39.25
					c-1.3,0.22-2.53-0.66-2.75-1.96c-0.22-1.3,0.66-2.53,1.96-2.75c22.07-3.7,42.17-2,59.74,5.06c17.45,7.01,32.15,19.2,43.71,36.21
					c0.74,1.09,0.45,2.58-0.64,3.32C247.19,389.78,246.72,389.91,246.26,389.91z"/>
			</g>
			<g>
				<path class="st0" d="M145.89,348.75c-0.15,0-0.31-0.02-0.47-0.04c-1.3-0.26-2.14-1.51-1.88-2.81
					c7.66-38.73-6.78-72.21-41.76-96.81c-1.08-0.76-1.34-2.25-0.58-3.33c0.76-1.08,2.25-1.34,3.33-0.58
					c18.26,12.84,31.26,28.13,38.64,45.42c7.33,17.18,9.04,36.09,5.06,56.22C148,347.96,147,348.75,145.89,348.75z"/>
			</g>
			<g>
				<path class="st0" d="M104.3,249.35c-0.77,0-1.53-0.37-1.99-1.06c-0.73-1.1-0.43-2.58,0.67-3.31
					c33.09-22.02,46.8-55.8,39.64-97.68c-0.22-1.3,0.65-2.53,1.95-2.76c1.3-0.22,2.53,0.65,2.76,1.95
					c3.74,21.87,2.02,41.78-5.12,59.19c-7.08,17.27-19.39,31.84-36.58,43.28C105.21,249.23,104.75,249.35,104.3,249.35z"/>
			</g>
			<g>
				<path class="st0" d="M166.35,152.01c-6.81,0-13.8-0.69-20.93-2.08c-1.3-0.25-2.14-1.5-1.89-2.8c0.25-1.29,1.51-2.14,2.8-1.89
					c39.14,7.6,72.98-6.7,97.85-41.34c0.77-1.07,2.26-1.32,3.33-0.55c1.07,0.77,1.32,2.26,0.55,3.33
					c-12.97,18.07-28.41,30.94-45.88,38.25C190.92,149.65,178.93,152.01,166.35,152.01z"/>
			</g>
			<g>
				<path class="st0" d="M304.12,177.72c-9.97,0-19.25-1.71-27.73-5.12c-12.82-5.15-23.62-14.1-32.1-26.6
					c-0.74-1.09-0.46-2.58,0.63-3.32c1.09-0.74,2.58-0.46,3.32,0.64c16.04,23.63,40.66,33.41,71.21,28.29
					c1.3-0.22,2.53,0.66,2.75,1.96c0.22,1.3-0.66,2.53-1.96,2.75C314.69,177.26,309.31,177.72,304.12,177.72z"/>
			</g>
			<g>
				<path class="st0" d="M350.42,249.26c-0.48,0-0.96-0.14-1.37-0.44c-13.39-9.42-22.93-20.64-28.35-33.35
					c-5.39-12.63-6.64-26.52-3.72-41.31c0.25-1.29,1.51-2.13,2.81-1.88c1.29,0.26,2.13,1.51,1.88,2.81
					c-5.52,27.92,4.9,52.06,30.13,69.82c1.08,0.76,1.34,2.25,0.58,3.33C351.9,248.91,351.17,249.26,350.42,249.26z"/>
			</g>
			<g>
				<path class="st0" d="M319.99,322.21c-1.14,0-2.15-0.82-2.35-1.99c-2.74-16.04-1.48-30.65,3.77-43.44
					c5.21-12.7,14.25-23.4,26.87-31.8c1.1-0.73,2.58-0.43,3.31,0.66c0.73,1.1,0.44,2.58-0.66,3.31
					c-23.86,15.89-33.74,40.25-28.57,70.46c0.22,1.3-0.65,2.54-1.95,2.76C320.25,322.19,320.12,322.21,319.99,322.21z"/>
			</g>
			<g>
				<path class="st0" d="M246.37,352.49c-0.48,0-0.97-0.14-1.39-0.44c-1.07-0.77-1.31-2.26-0.55-3.33
					c9.51-13.25,20.84-22.7,33.66-28.06c12.74-5.33,26.76-6.57,41.68-3.67c1.29,0.25,2.14,1.5,1.89,2.8c-0.25,1.3-1.5,2.14-2.8,1.89
					c-28.22-5.47-52.62,4.84-70.55,29.83C247.84,352.14,247.11,352.49,246.37,352.49z"/>
			</g>
			<g>
				<path class="st0" d="M246.26,351.67c-0.76,0-1.52-0.37-1.98-1.05c-13.28-19.54-32.43-29.62-55.94-29.62
					c-4.91,0-10,0.44-15.28,1.32c-1.3,0.22-2.53-0.66-2.75-1.96c-0.22-1.3,0.66-2.53,1.96-2.75c16.19-2.71,30.94-1.46,43.84,3.73
					c12.82,5.15,23.62,14.1,32.11,26.6c0.74,1.09,0.46,2.57-0.63,3.31C247.19,351.54,246.72,351.67,246.26,351.67z"/>
			</g>
			<g>
				<path class="st0" d="M173.19,321.7c-0.15,0-0.31-0.01-0.47-0.04c-1.3-0.25-2.13-1.51-1.88-2.81
					c5.53-27.92-4.89-52.06-30.13-69.82c-1.08-0.76-1.34-2.25-0.58-3.33c0.76-1.08,2.25-1.34,3.33-0.58
					c13.39,9.42,22.93,20.64,28.35,33.35c5.39,12.63,6.64,26.53,3.71,41.31C175.3,320.92,174.31,321.7,173.19,321.7z"/>
			</g>
			<g>
				<path class="st0" d="M142.92,249.35c-0.77,0-1.53-0.37-1.99-1.06c-0.73-1.1-0.43-2.58,0.66-3.31
					c23.86-15.87,33.74-40.24,28.57-70.45c-0.22-1.3,0.65-2.53,1.95-2.76c1.3-0.22,2.53,0.65,2.76,1.95
					c2.74,16.04,1.47,30.65-3.77,43.44c-5.21,12.7-14.25,23.39-26.87,31.79C143.83,249.23,143.37,249.35,142.92,249.35z"/>
			</g>
			<g>
				<path class="st0" d="M188.09,178.5c-5,0-10.12-0.51-15.35-1.52c-1.29-0.25-2.14-1.5-1.89-2.8c0.25-1.29,1.51-2.14,2.8-1.89
					c28.22,5.47,52.63-4.85,70.57-29.84c0.77-1.07,2.26-1.31,3.33-0.55c1.07,0.77,1.32,2.26,0.55,3.33
					c-9.52,13.25-20.85,22.7-33.68,28.06C206.14,176.76,197.33,178.5,188.09,178.5z"/>
			</g>
			<g>
				<path class="st0" d="M282.28,204.76c-6.32,0-12.21-1.08-17.6-3.25c-8.15-3.27-15.01-8.95-20.39-16.88
					c-0.74-1.09-0.46-2.58,0.63-3.32c1.09-0.74,2.58-0.46,3.32,0.63c9.76,14.39,24.78,20.34,43.42,17.22
					c1.3-0.22,2.53,0.66,2.75,1.96c0.21,1.3-0.66,2.53-1.96,2.75C288.95,204.47,285.56,204.76,282.28,204.76z"/>
			</g>
			<g>
				<path class="st0" d="M311.09,249.3c-0.48,0-0.96-0.14-1.37-0.43c-8.47-5.97-14.51-13.08-17.96-21.14
					c-3.43-8.03-4.22-16.86-2.37-26.24c0.26-1.3,1.52-2.13,2.81-1.88c1.29,0.26,2.13,1.51,1.88,2.81
					c-3.37,17,2.99,31.71,18.39,42.55c1.08,0.76,1.34,2.25,0.58,3.33C312.58,248.94,311.84,249.3,311.09,249.3z"/>
			</g>
			<g>
				<path class="st0" d="M292.15,294.71c-1.15,0-2.15-0.82-2.35-1.99c-1.74-10.15-0.93-19.42,2.4-27.54
					c3.31-8.07,9.05-14.87,17.06-20.2c1.1-0.73,2.58-0.43,3.31,0.66c0.73,1.1,0.43,2.58-0.67,3.31
					c-14.53,9.67-20.55,24.53-17.4,42.96c0.22,1.3-0.65,2.54-1.95,2.76C292.42,294.7,292.29,294.71,292.15,294.71z"/>
			</g>
			<g>
				<path class="st0" d="M246.32,313.56c-0.48,0-0.97-0.15-1.39-0.45c-1.07-0.77-1.31-2.26-0.55-3.33
					c6.03-8.39,13.21-14.37,21.34-17.78c8.1-3.39,17-4.17,26.47-2.34c1.3,0.25,2.14,1.51,1.89,2.8c-0.22,1.14-1.22,1.93-2.34,1.93
					c-0.15,0-0.3-0.01-0.46-0.04c-17.19-3.34-32.07,2.96-43.03,18.21C247.79,313.21,247.06,313.56,246.32,313.56z"/>
			</g>
			<g>
				<path class="st0" d="M246.26,313.04c-0.76,0-1.52-0.37-1.98-1.05c-9.77-14.38-24.79-20.34-43.44-17.22
					c-1.3,0.22-2.53-0.66-2.75-1.96c-0.22-1.3,0.66-2.53,1.96-2.75c10.25-1.71,19.6-0.91,27.78,2.37
					c8.15,3.27,15.01,8.95,20.4,16.88c0.74,1.09,0.46,2.58-0.63,3.32C247.19,312.9,246.72,313.04,246.26,313.04z"/>
			</g>
			<g>
				<path class="st0" d="M200.77,294.39c-0.15,0-0.31-0.01-0.47-0.04c-1.29-0.26-2.13-1.51-1.88-2.81
					c3.37-17-2.99-31.71-18.38-42.55c-1.08-0.76-1.34-2.25-0.58-3.33c0.76-1.08,2.25-1.34,3.32-0.58
					c8.48,5.96,14.52,13.08,17.96,21.14c3.43,8.03,4.22,16.86,2.37,26.24C202.88,293.61,201.89,294.39,200.77,294.39z"/>
			</g>
			<g>
				<path class="st0" d="M181.94,249.35c-0.77,0-1.53-0.37-1.99-1.06c-0.73-1.1-0.43-2.58,0.67-3.31
					c14.53-9.66,20.55-24.52,17.39-42.95c-0.22-1.3,0.65-2.53,1.95-2.76c1.3-0.22,2.53,0.65,2.76,1.95
					c1.74,10.15,0.94,19.41-2.39,27.53c-3.31,8.07-9.05,14.87-17.06,20.19C182.85,249.23,182.39,249.35,181.94,249.35z"/>
			</g>
			<g>
				<path class="st0" d="M210.05,205.25c-3.17,0-6.42-0.32-9.74-0.97c-1.29-0.25-2.14-1.5-1.89-2.8c0.25-1.3,1.51-2.14,2.8-1.89
					c17.19,3.34,32.07-2.96,43.02-18.21c0.77-1.07,2.26-1.32,3.33-0.55c1.07,0.77,1.32,2.26,0.55,3.33
					c-6.02,8.39-13.2,14.37-21.35,17.77C221.52,204.15,215.92,205.25,210.05,205.25z"/>
			</g>
			<g>
				<path class="st0" d="M262.01,229.85c-2.93,0-5.67-0.51-8.19-1.52c-3.82-1.53-7.02-4.19-9.53-7.88
					c-0.74-1.09-0.46-2.58,0.63-3.32c1.09-0.74,2.58-0.46,3.32,0.63c4.01,5.91,9.96,8.26,17.66,6.96c1.3-0.22,2.53,0.66,2.75,1.96
					c0.21,1.3-0.66,2.53-1.96,2.75C265.08,229.71,263.52,229.85,262.01,229.85z"/>
			</g>
			<g>
				<path class="st0" d="M274.63,249.33c-0.48,0-0.95-0.14-1.37-0.44c-3.91-2.75-6.71-6.06-8.32-9.82
					c-1.61-3.77-1.98-7.89-1.12-12.27c0.25-1.3,1.51-2.14,2.8-1.88c1.3,0.26,2.14,1.51,1.88,2.81c-1.38,6.98,1.15,12.79,7.5,17.26
					c1.08,0.76,1.33,2.25,0.58,3.32C276.12,248.98,275.38,249.33,274.63,249.33z"/>
			</g>
			<g>
				<path class="st0" d="M266.34,269.2c-1.14,0-2.15-0.82-2.35-1.99c-0.8-4.7-0.42-9,1.13-12.79c1.55-3.78,4.23-6.96,7.96-9.45
					c1.1-0.73,2.58-0.44,3.31,0.66c0.73,1.1,0.44,2.58-0.66,3.31c-5.97,3.98-8.33,9.85-7.03,17.46c0.22,1.3-0.65,2.53-1.95,2.76
					C266.6,269.19,266.47,269.2,266.34,269.2z"/>
			</g>
			<g>
				<path class="st0" d="M246.28,277.45c-0.48,0-0.97-0.15-1.39-0.45c-1.07-0.77-1.31-2.26-0.54-3.33c2.78-3.87,6.12-6.64,9.91-8.24
					c3.79-1.58,7.95-1.96,12.35-1.1c1.3,0.25,2.14,1.5,1.89,2.8c-0.22,1.14-1.22,1.93-2.34,1.93c-0.15,0-0.3-0.01-0.46-0.04
					c-7.07-1.37-12.95,1.13-17.48,7.43C247.76,277.11,247.03,277.45,246.28,277.45z"/>
			</g>
			<g>
				<path class="st0" d="M246.26,277.23c-0.76,0-1.51-0.37-1.97-1.05c-4.03-5.91-9.97-8.26-17.68-6.97
					c-1.3,0.22-2.53-0.66-2.75-1.96c-0.22-1.3,0.66-2.53,1.96-2.75c4.73-0.79,9.06-0.42,12.87,1.12c3.82,1.53,7.02,4.18,9.54,7.87
					c0.74,1.09,0.46,2.58-0.63,3.32C247.19,277.09,246.73,277.23,246.26,277.23z"/>
			</g>
			<g>
				<path class="st0" d="M226.36,269.07c-0.15,0-0.31-0.01-0.47-0.04c-1.29-0.26-2.13-1.51-1.88-2.81
					c1.39-6.97-1.14-12.78-7.5-17.26c-1.08-0.76-1.34-2.25-0.58-3.32c0.76-1.08,2.25-1.34,3.33-0.58c3.92,2.75,6.72,6.06,8.33,9.82
					c1.61,3.77,1.99,7.9,1.12,12.28C228.47,268.28,227.47,269.07,226.36,269.07z"/>
			</g>
			<g>
				<path class="st0" d="M218.11,249.35c-0.77,0-1.53-0.37-1.99-1.06c-0.73-1.1-0.43-2.58,0.67-3.31c5.97-3.97,8.33-9.84,7.03-17.44
					c-0.22-1.3,0.65-2.54,1.95-2.76c1.3-0.22,2.53,0.65,2.76,1.95c0.8,4.69,0.42,8.99-1.13,12.78c-1.55,3.79-4.23,6.96-7.96,9.45
					C219.03,249.23,218.57,249.35,218.11,249.35z"/>
			</g>
			<g>
				<path class="st0" d="M230.41,230.06c-1.47,0-2.98-0.15-4.52-0.45c-1.3-0.25-2.14-1.5-1.89-2.8c0.25-1.3,1.5-2.14,2.8-1.89
					c7.07,1.37,12.95-1.13,17.48-7.43c0.77-1.07,2.26-1.31,3.33-0.55c1.07,0.77,1.31,2.26,0.55,3.33c-2.78,3.88-6.12,6.65-9.91,8.23
					C235.79,229.54,233.16,230.06,230.41,230.06z"/>
			</g>
		</g>
	</g>
	<path class="st1" d="M142.52,244.35c23.11-15.84,32.68-39.85,27.69-69.54l-21.92-21.71c2.36,19.28,0.32,36.94-6.09,52.58
		c-6.17,15.04-16.29,28.02-30.14,38.67H142.52z"/>
	<path class="st1" d="M181.54,244.35c13.77-9.61,19.48-24.1,16.52-41.97l-22.28-22.05c1.4,13.47-0.16,25.83-4.68,36.84
		c-4.3,10.48-11.21,19.6-20.59,27.19H181.54z"/>
	<path class="st1" d="M202.22,199.78c16.58,2.87,30.95-3.29,41.65-17.88v-31.18c-8.59,10.4-18.48,17.99-29.46,22.58
		c-8.27,3.46-17.09,5.2-26.33,5.2c-2.55,0-5.14-0.13-7.76-0.4L202.22,199.78z"/>
	<path class="st1" d="M174.65,172.48c27.62,5,51.53-5.2,69.23-29.56v-30.7c-12.07,15.19-26.07,26.18-41.7,32.72
		c-11.25,4.71-23.24,7.07-35.83,7.07c-4.34,0-8.75-0.28-13.23-0.84L174.65,172.48z"/>
	<path class="st1" d="M318.6,171.76l21.9-21.68c-5.03,0.58-9.94,0.87-14.74,0.87c-13.58,0-26.22-2.33-37.77-6.97
		c-15.32-6.15-28.52-16.3-39.34-30.2v30.15C264.54,166.9,288.71,176.51,318.6,171.76z"/>
	<path class="st1" d="M290.76,199.32l22.26-22.04c-3.02,0.29-5.99,0.44-8.89,0.44c-9.97,0-19.25-1.71-27.73-5.12
		c-10.71-4.31-20.02-11.26-27.74-20.73v30.68C258.26,196.28,272.79,202.06,290.76,199.32z"/>
	<path class="st1" d="M264.96,224.87l20.39-20.19c-1.03,0.06-2.05,0.08-3.07,0.08c-6.32,0-12.21-1.08-17.6-3.25
		c-6.09-2.45-11.46-6.23-16.03-11.29v28.14C252.48,223.6,257.96,225.79,264.96,224.87z"/>
	<path class="st1" d="M227.78,225.09c6.43,0.93,11.84-1.43,16.09-7.05v-28.56c-5.06,5.65-10.79,9.83-17.1,12.47
		c-5.26,2.2-10.86,3.3-16.73,3.3c-0.78,0-1.57-0.02-2.36-0.06L227.78,225.09z"/>
	<path class="st1" d="M204.03,285.19l20.15-19.95c0.96-6.46-1.54-11.87-7.43-16.12h-28.79c5.81,5.05,10.09,10.79,12.79,17.1
		C203.27,272.15,204.37,278.5,204.03,285.19z"/>
	<path class="st1" d="M198.61,290.56c2.92-16.51-3.42-30.82-18.38-41.43h-31.45c10.62,8.55,18.36,18.39,23.03,29.34
		c4.47,10.47,6.09,21.81,4.85,33.81L198.61,290.56z"/>
	<path class="st1" d="M217.68,244.35c5.21-3.88,7.29-9.39,6.2-16.41l-20.39-20.19c0.49,7.62-0.57,14.66-3.17,21.01
		c-2.42,5.91-6.14,11.13-11.1,15.59H217.68z"/>
	<path class="st1" d="M171.03,317.86c5.08-27.45-5.35-51.19-30.18-68.73h-30.97c15.47,11.99,26.65,25.92,33.29,41.47
		c6.4,14.99,8.51,31.31,6.3,48.6L171.03,317.86z"/>
	<path class="st1" d="M243.87,350.02c-13.26-19.15-32.26-29.02-55.52-29.02c-4.82,0-9.82,0.42-15,1.28l-21.87,21.66
		c19.46-2.33,37.28-0.31,53.05,6.03c15.32,6.16,28.53,16.3,39.35,30.21V350.02z"/>
	<path class="st1" d="M243.87,342.08v-30.69c-9.72-13.86-24.45-19.62-42.68-16.68l-22.22,22c13.58-1.38,26.05,0.17,37.15,4.63
		C226.84,325.65,236.15,332.61,243.87,342.08z"/>
	<path class="st1" d="M243.87,303.73v-28.14c-3.94-5.38-9.6-7.55-16.85-6.45l-20.35,20.15c7.68-0.48,14.78,0.57,21.17,3.13
		C233.93,294.87,239.3,298.66,243.87,303.73z"/>
	<path class="st1" d="M265.72,292c6.12-2.56,12.69-3.63,19.61-3.22l-20.01-19.81c-0.02-0.01-0.04-0.02-0.07-0.03
		c-6.66-1.15-12.24,1.19-16.61,6.94v28.57C253.71,298.81,259.43,294.64,265.72,292z"/>
	<path class="st1" d="M278.09,320.64c10.71-4.48,22.33-6.07,34.63-4.74l-21.68-21.47c-0.1-0.05-0.2-0.12-0.29-0.18
		c-16.76-3.07-31.3,3.07-42.1,17.78v31.19C257.23,332.82,267.11,325.24,278.09,320.64z"/>
	<path class="st1" d="M290.34,349c15.29-6.4,31.94-8.46,49.6-6.15l-21.21-21c-0.13-0.08-0.26-0.18-0.37-0.29
		c-27.83-5.22-51.92,4.96-69.71,29.46v30.7C260.72,366.53,274.71,355.54,290.34,349z"/>
	<path class="st1" d="M344.16,340.3c-2.25-19.07-0.18-36.55,6.17-52.04c6.25-15.26,16.58-28.4,30.73-39.14h-29.85
		c-0.24,0.08-0.49,0.13-0.75,0.13c-23.3,15.74-33.06,39.68-28.26,69.3L344.16,340.3z"/>
	<path class="st1" d="M321.4,276.78c4.38-10.7,11.49-19.97,21.16-27.66h-30.59c-0.17,0.07-0.36,0.12-0.54,0.14
		c-13.95,9.52-19.84,23.92-17.08,41.72l22.32,22.09C315.36,299.83,316.95,287.65,321.4,276.78z"/>
	<path class="st1" d="M292.2,265.18c2.5-6.11,6.4-11.49,11.62-16.06H275.6c-0.09,0.04-0.18,0.07-0.28,0.1
		c-5.42,3.8-7.69,9.25-6.77,16.21L289,285.69C288.58,278.26,289.66,271.39,292.2,265.18z"/>
	<path class="st1" d="M275.13,244.35l28.88,0c-5.53-4.94-9.64-10.51-12.26-16.63c-2.59-6.06-3.68-12.58-3.25-19.45l-20.08,19.89
		c0,0,0,0,0,0.01c0,0,0,0,0,0.01C267.29,234.63,269.55,240.07,275.13,244.35z"/>
	<path class="st1" d="M343.14,244.35c-10.32-8.43-17.86-18.12-22.45-28.87c-4.53-10.62-6.14-22.14-4.8-34.33l-21.76,21.55
		c-0.05,0.09-0.1,0.17-0.16,0.25c-3.07,16.46,3.02,30.74,17.65,41.41H343.14z"/>
	<path class="st1" d="M382.02,244.35c-15.15-11.88-26.13-25.65-32.68-41c-6.47-15.15-8.55-31.66-6.22-49.16l-21.27,21.06
		c-0.09,0.14-0.19,0.27-0.3,0.38c-5.23,27.4,4.94,51.13,29.44,68.72H382.02z"/>
	<path class="st1" d="M243.87,268.68v-16.21l-11.8,11.68c2.35,0.15,4.56,0.64,6.62,1.47C240.57,266.37,242.3,267.39,243.87,268.68z"
		/>
	<path class="st1" d="M260.27,263.97l-11.62-11.5v16.46c1.73-1.48,3.61-2.65,5.61-3.49C256.17,264.64,258.18,264.15,260.27,263.97z"
		/>
	<path class="st1" d="M229.03,260.44l11.43-11.31h-16.58c1.58,1.77,2.82,3.69,3.7,5.75C228.34,256.65,228.82,258.51,229.03,260.44z"
		/>
	<path class="st1" d="M224.54,244.35h15.92l-11.57-11.46c-0.15,2.34-0.65,4.55-1.49,6.61C226.68,241.26,225.72,242.87,224.54,244.35
		z"/>
	<path class="st1" d="M243.87,241.02V225c-1.74,1.49-3.62,2.66-5.62,3.5c-1.78,0.75-3.64,1.22-5.57,1.43L243.87,241.02z"/>
	<path class="st1" d="M248.65,241.02l11.36-11.25c-2.19-0.18-4.26-0.66-6.19-1.44c-1.88-0.75-3.6-1.77-5.17-3.05V241.02z"/>
	<path class="st1" d="M268.22,244.35c-1.38-1.64-2.48-3.4-3.28-5.28c-0.81-1.91-1.31-3.91-1.49-5.98l-11.38,11.26H268.22z"/>
	<path class="st1" d="M263.66,260.6c0.18-2.18,0.67-4.24,1.46-6.17c0.79-1.93,1.88-3.7,3.24-5.3h-16.29L263.66,260.6z"/>
</g>
<g id="Master_Layer_2">
</g>
</svg>
